HIERARCHY
ROOT Hips
{
 OFFSET 0.000000 0.000000 0.000000
 CHANNELS 6 Xposition Yposition Zposition Yrotation Xrotation Zrotation
 JOINT Chest
 {
  OFFSET 0.000000 9.585900 0.002600
  CHANNELS 3 Yrotation Xrotation Zrotation
  JOINT Chest2
  {
   OFFSET 0.000000 9.601200 -0.005300
   CHANNELS 3 Yrotation Xrotation Zrotation
   JOINT Chest3
   {
    OFFSET 0.000000 9.561800 0.000000
    CHANNELS 3 Yrotation Xrotation Zrotation
    JOINT Chest4
    {
     OFFSET 0.000000 9.552100 0.000000
     CHANNELS 3 Yrotation Xrotation Zrotation
     JOINT Neck
     {
      OFFSET 0.000000 14.453000 0.000000
      CHANNELS 3 Yrotation Xrotation Zrotation
      JOINT Head
      {
       OFFSET 0.000000 8.936500 -0.011300
       CHANNELS 3 Yrotation Xrotation Zrotation
       End Site
       {
        OFFSET 0.000000 17.073600 -0.006000
       }
      }
     }
     JOINT RightCollar
     {
      OFFSET -2.921100 9.558500 0.000000
      CHANNELS 3 Yrotation Xrotation Zrotation
      JOINT RightShoulder
      {
       OFFSET -13.519700 0.000000 0.000000
       CHANNELS 3 Yrotation Xrotation Zrotation
       JOINT RightElbow
       {
        OFFSET 0.000000 -29.696600 0.000000
        CHANNELS 3 Yrotation Xrotation Zrotation
        JOINT RightWrist
        {
         OFFSET 0.000000 -24.004700 0.000000
         CHANNELS 3 Yrotation Xrotation Zrotation
         End Site
         {
          OFFSET 0.000000 -17.728500 0.000000
         }
        }
       }
      }
     }
     JOINT LeftCollar
     {
      OFFSET 2.921100 9.558500 0.000000
      CHANNELS 3 Yrotation Xrotation Zrotation
      JOINT LeftShoulder
      {
       OFFSET 13.519700 0.000000 0.000000
       CHANNELS 3 Yrotation Xrotation Zrotation
       JOINT LeftElbow
       {
        OFFSET 0.000000 -29.696600 0.000000
        CHANNELS 3 Yrotation Xrotation Zrotation
        JOINT LeftWrist
        {
         OFFSET 0.000000 -24.004700 0.000000
         CHANNELS 3 Yrotation Xrotation Zrotation
         End Site
         {
          OFFSET 0.000000 -17.728500 0.000000
         }
        }
       }
      }
     }
    }
   }
  }
 }
 JOINT RightHip
 {
  OFFSET -7.771700 -0.012900 -0.001300
  CHANNELS 3 Yrotation Xrotation Zrotation
  JOINT RightKnee
  {
   OFFSET 0.000000 -40.869800 0.001200
   CHANNELS 3 Yrotation Xrotation Zrotation
   JOINT RightAnkle
   {
    OFFSET 0.000000 -39.717900 0.002100
    CHANNELS 3 Yrotation Xrotation Zrotation
    JOINT RightToe
    {
     OFFSET 0.000000 -4.965400 11.033500
     CHANNELS 3 Yrotation Xrotation Zrotation
     End Site
     {
      OFFSET 0.000000 -1.423100 5.872300
     }
    }
   }
  }
 }
 JOINT LeftHip
 {
  OFFSET 7.771700 -0.012900 -0.001300
  CHANNELS 3 Yrotation Xrotation Zrotation
  JOINT LeftKnee
  {
   OFFSET 0.000000 -40.869800 0.001200
   CHANNELS 3 Yrotation Xrotation Zrotation
   JOINT LeftAnkle
   {
    OFFSET 0.000000 -39.717900 0.002100
    CHANNELS 3 Yrotation Xrotation Zrotation
    JOINT LeftToe
    {
     OFFSET 0.000000 -4.965400 11.033500
     CHANNELS 3 Yrotation Xrotation Zrotation
     End Site
     {
      OFFSET 0.000000 -1.423100 5.872300
     }
    }
   }
  }
 }
}
MOTION
Frames: 12
Frame Time: 0.008333
-5.439493 52.950640 30.197782 171.505310 -39.983329 -2.823698 3.749823 21.857463 2.326175 0.452586 3.037714 0.414239 0.671700 4.888372 0.626487 3.054710 18.457993 2.867237 1.370404 14.908336 -0.781946 2.943920 -7.911551 -1.954683 -5.177545 0.063642 -2.102258 -3.379562 -4.460591 3.735544 -173.980446 -83.157592 -172.819734 3.065918 3.450412 1.827136 -4.265017 1.025410 -0.420143 7.263850 -3.405723 1.194132 145.766801 -79.791794 -143.726593 1.560787 -17.916084 -1.519142 -3.213065 -41.433746 3.410831 -124.987408 86.067109 -120.318732 1.188615 -10.063022 -2.790341 0.470624 -0.376542 0.190695 -1.340462 -37.895081 6.315694 73.187221 83.635760 63.140493 -5.012277 -12.971744 9.413712 0.283805 1.695758 0.204821
-5.441336 52.917733 30.208996 171.543317 -39.998452 -2.828509 3.740587 21.885366 2.337314 0.442326 3.034715 0.404172 0.724553 4.931071 0.664575 2.992863 18.427987 2.835318 1.423196 15.007534 -0.767424 2.895800 -7.931765 -1.972690 -5.184336 0.100395 -2.098066 -3.377696 -4.497231 3.712851 -174.029506 -83.125462 -172.746958 3.155723 3.550777 2.180296 -4.277447 1.059132 -0.405776 7.241477 -3.419023 1.190490 145.820494 -79.724014 -143.804752 1.721232 -18.225241 -1.490064 -3.342108 -41.397585 3.413788 -124.736367 86.079185 -120.091341 1.197776 -10.072472 -2.862340 0.499818 -0.372881 0.208061 -1.355979 -37.887671 6.300642 73.137832 83.624592 63.073714 -5.024701 -12.970466 9.418715 0.284683 1.709709 0.199931
-5.444802 52.885764 30.222334 171.606795 -39.992271 -2.824060 3.754415 21.898630 2.360919 0.383092 3.025411 0.372703 0.754573 4.949354 0.681042 2.963042 18.421780 2.826393 1.449732 15.052475 -0.764342 2.871254 -7.891965 -1.981692 -5.186216 0.134603 -2.092359 -3.378193 -4.531145 3.688367 -174.088939 -83.093634 -172.668355 3.247599 3.680537 2.521834 -4.284328 1.122013 -0.364453 7.188802 -3.473001 1.153640 145.931311 -79.680127 -143.942278 1.848023 -18.465311 -1.421983 -3.412725 -41.390380 3.377253 -124.751195 86.112660 -120.126615 1.174949 -10.082831 -2.885809 0.511821 -0.367184 0.213604 -1.385820 -37.902959 6.258184 72.927213 83.625198 62.842970 -5.031365 -12.940281 9.419893 0.304240 1.706913 0.183025
-5.442503 52.858703 30.233084 171.639508 -40.011453 -2.813329 3.741199 21.923737 2.348108 0.406118 3.038077 0.386051 0.763468 4.959669 0.688759 3.029844 18.470250 2.874176 1.380108 15.041038 -0.788558 2.841420 -7.850135 -1.992269 -5.278082 0.103632 -2.108689 -3.380060 -4.561683 3.667048 -174.226856 -83.066393 -172.514315 3.338558 3.822889 2.837617 -4.380386 1.119474 -0.339494 7.109760 -3.538089 1.107680 146.069000 -79.670297 -144.079176 1.943639 -18.651559 -1.350976 -3.413039 -41.367403 3.340478 -124.662105 86.121301 -120.032008 1.166403 -10.069063 -2.885978 0.519703 -0.381600 0.208862 -1.411959 -37.892560 6.236953 72.827951 83.632592 62.723903 -5.030336 -12.912119 9.408147 0.312688 1.697249 0.187072
-5.436053 52.833130 30.244038 171.669115 -40.029837 -2.809405 3.734405 21.946407 2.345203 0.474876 3.062248 0.425412 0.731102 4.963492 0.676531 3.065300 18.498530 2.906331 1.340800 15.052243 -0.805375 2.807251 -7.809772 -2.004702 -5.338983 0.084441 -2.123575 -3.371008 -4.558518 3.636962 -174.398123 -83.017954 -172.343946 3.424633 3.958914 3.111355 -4.455344 1.113305 -0.319433 7.014608 -3.598591 1.070667 146.212441 -79.687685 -144.196629 2.001894 -18.789349 -1.281590 -3.317175 -41.354672 3.251884 -125.535148 86.219916 -120.803775 1.021450 -10.035146 -2.931020 0.550924 -0.413638 0.233165 -1.431903 -37.879762 6.218588 72.663527 83.642310 62.553041 -5.019221 -12.896269 9.396334 0.318678 1.701498 0.191704
-5.428030 52.809359 30.253728 171.705743 -40.054066 -2.807171 3.755939 21.980427 2.369641 0.494381 3.079847 0.437984 0.721947 4.974338 0.676191 3.085540 18.519399 2.930967 1.318352 15.071015 -0.816749 2.769060 -7.775143 -2.017080 -5.377494 0.057047 -2.137200 -3.386106 -4.547425 3.616854 -174.651273 -82.982200 -172.072522 3.504778 4.075919 3.327533 -4.520513 1.104383 -0.295035 6.907824 -3.670118 1.033160 146.408292 -79.727805 -144.356733 2.033416 -18.885371 -1.210621 -3.274616 -41.327065 3.188336 -126.261495 86.309960 -121.468029 0.913099 -10.018877 -2.962765 0.583111 -0.432603 0.244307 -1.457423 -37.860788 6.195677 72.465800 83.659745 62.353505 -5.006399 -12.877538 9.379061 0.327461 1.700368 0.189626
-5.419856 52.785341 30.264420 171.710453 -40.066189 -2.781666 3.800445 22.004271 2.390492 0.501491 3.094178 0.445235 0.728587 4.990609 0.684381 3.108782 18.541205 2.959751 1.294906 15.086979 -0.828133 2.728962 -7.745810 -2.029264 -5.407001 0.013777 -2.155320 -3.412367 -4.529826 3.599543 -174.918816 -82.958239 -171.780091 3.578591 4.167716 3.488354 -4.589582 1.083166 -0.272040 6.815576 -3.737417 0.989999 146.712702 -79.776886 -144.642524 2.048623 -18.954198 -1.144531 -3.069625 -41.345281 3.050835 -127.033835 86.351582 -122.089717 0.817173 -9.941093 -2.992071 0.626049 -0.506771 0.267611 -1.482817 -37.859566 6.175043 72.369749 83.675971 62.245534 -4.974605 -12.843135 9.353168 0.320975 1.677210 0.179161
-5.410938 52.764237 30.272823 171.715725 -40.091764 -2.761514 3.899122 22.055967 2.466150 0.460305 3.092758 0.428607 0.735164 5.006911 0.692999 3.131695 18.562882 2.990073 1.272702 15.101535 -0.839981 2.665245 -7.771496 -2.043062 -5.422070 -0.035984 -2.179404 -3.436902 -4.505443 3.579900 -175.076080 -82.923087 -171.646061 3.649716 4.250518 3.644334 -4.653646 1.053273 -0.252387 6.759760 -3.781763 0.935702 147.153639 -79.819411 -145.109985 2.050730 -19.010617 -1.085410 -2.937094 -41.334625 2.934262 -127.701678 86.400958 -122.653276 0.826489 -9.881707 -3.024023 0.599883 -0.557933 0.272627 -1.518539 -37.841771 6.162799 72.377186 83.677002 62.229871 -4.945958 -12.812444 9.343361 0.304360 1.654823 0.165015
-5.401441 52.748495 30.276697 171.717719 -40.149147 -2.747810 3.972586 22.130643 2.531799 0.449446 3.099257 0.424667 0.705919 5.002597 0.676020 3.195274 18.605384 3.044658 1.253580 15.114223 -0.851586 2.602706 -7.795449 -2.059292 -5.421943 -0.088253 -2.207043 -3.455587 -4.476330 3.559559 -175.268393 -82.922527 -171.436403 3.692802 4.291556 3.704204 -4.731774 1.000608 -0.263490 6.656164 -3.849455 0.927060 147.536479 -79.894248 -145.456809 2.043499 -19.066696 -1.034332 -2.880327 -41.275548 2.869302 -128.172374 86.447347 -123.066713 0.842301 -9.851155 -3.046848 0.602784 -0.581792 0.262328 -1.598144 -37.791331 6.160943 72.496226 83.653761 62.299239 -4.842330 -12.744731 9.340326 0.223478 1.586600 0.123877
-5.398418 52.726926 30.288772 171.762554 -40.130304 -2.744446 3.968988 22.124476 2.542411 0.465039 3.113930 0.440560 0.729480 5.029968 0.697419 3.191620 18.619150 3.060086 1.239165 15.125042 -0.861982 2.620541 -7.699172 -2.072185 -5.407769 -0.142748 -2.235248 -3.466254 -4.443233 3.538799 -175.362765 -82.933982 -171.328683 3.726047 4.321594 3.721525 -4.800961 0.945252 -0.276077 6.516646 -3.974689 0.958410 147.340419 -79.980157 -145.162371 1.988813 -19.145102 -1.021523 -2.852995 -41.290945 2.787155 -128.431896 86.488033 -123.263888 0.807783 -9.832558 -3.090974 0.628285 -0.592342 0.273101 -1.629865 -37.815482 6.113492 72.296554 83.658481 62.128493 -4.886418 -12.746259 9.288585 0.304061 1.621233 0.149766
-5.391373 52.715115 30.293140 171.730516 -40.178039 -2.725703 4.012573 22.173657 2.563181 0.478874 3.123018 0.453844 0.778225 5.069842 0.740395 3.188783 18.632181 3.075140 1.229398 15.136259 -0.871611 2.621238 -7.655078 -2.084739 -5.380552 -0.195656 -2.265777 -3.471227 -4.409078 3.518207 -175.373985 -82.941630 -171.327261 3.751195 4.359097 3.730045 -4.791689 0.913625 -0.223507 6.361972 -4.099543 0.916405 147.635604 -80.075387 -145.454412 1.993652 -19.210819 -0.957725 -2.782091 -41.241752 2.724412 -128.685033 86.519061 -123.454171 0.886564 -9.797199 -3.108250 0.562846 -0.617134 0.247219 -1.621310 -37.770433 6.112238 72.282799 83.647411 62.111676 -4.849120 -12.688041 9.295449 0.269619 1.567058 0.123833
-5.393633 52.703130 30.299293 171.754440 -40.197373 -2.707251 4.033050 22.208105 2.590496 0.455855 3.121812 0.434612 0.807367 5.097993 0.770681 3.209767 18.654088 3.104346 1.221105 15.148219 -0.880506 2.608627 -7.632854 -2.097971 -5.350568 -0.245365 -2.301170 -3.470890 -4.376562 3.499795 -175.350450 -82.954012 -171.364962 3.770489 4.402172 3.729510 -4.800823 0.860278 -0.209206 6.248764 -4.197115 0.903936 148.019548 -80.166486 -145.861530 2.001352 -19.281716 -0.890123 -2.765046 -41.211691 2.637510 -128.891914 86.553929 -123.636527 0.939163 -9.783136 -3.103536 0.516615 -0.620703 0.217884 -1.635009 -37.753601 6.049719 72.279695 83.605698 62.124042 -4.869446 -12.645182 9.268965 0.287493 1.546561 0.122742
